<svg width="60" height="60" viewBox="0 0 60 60" fill="none" xmlns="http://www.w3.org/2000/svg">
<g clip-path="url(#clip0_2236_4287)">
<path fill-rule="evenodd" clip-rule="evenodd" d="M3.82979 0H56.1709V3.82979H60V56.1702H56.1709V60L3.82979 60V56.1702H0V3.82979H3.82979V0Z" fill="#484848"/>
<path fill-rule="evenodd" clip-rule="evenodd" d="M7.17193 3.82983H52.8301V7.17071H56.171V3.82983H56.1715V56.1703L56.171 56.1703V52.8294H52.8301V56.1703L7.17193 56.1703V52.8294H3.83105V7.17071H7.17193V3.82983Z" fill="#FFFDF9"/>
<path d="M37.6309 24.3685V22.4738H35.7361V24.3685H37.6309Z" fill="#333333" stroke="#333333"/>
<path d="M43.3164 30.0527V28.158H41.4217V30.0527H43.3164Z" fill="#333333" stroke="#333333"/>
<path d="M37.6309 35.7368V33.842H35.7361V35.7368H37.6309Z" fill="#333333" stroke="#333333"/>
<path d="M40.4736 32.8947V31H38.5789V32.8947H40.4736Z" fill="#333333" stroke="#333333"/>
<path d="M49 35.7368V33.842H47.1053V35.7368H49Z" fill="#333333" stroke="#333333"/>
<path d="M46.1572 32.8947V31H44.2625V32.8947H46.1572Z" fill="#333333" stroke="#333333"/>
<path d="M49 24.3685V22.4738H47.1053V24.3685H49Z" fill="#333333" stroke="#333333"/>
<path d="M46.1572 27.2105V25.3158H44.2625V27.2105H46.1572Z" fill="#333333" stroke="#333333"/>
<path d="M40.4736 27.2105V25.3158H38.5789V27.2105H40.4736Z" fill="#333333" stroke="#333333"/>
<path d="M13 35.1053V24.0526H15.0724V21.2895H20.5987V19.2171H22.6711V17.1447H24.7434V15.0724H26.8158V13H30.9605V15.0724H33.0329V44.0855H30.9605V46.1579H26.125V44.0855H24.0526V42.0132H21.9803V39.9408H19.9079V37.8684H15.0724V35.1053H13Z" fill="#333333" stroke="#333333"/>
<path d="M15.0724 24.0526H13V25.4342H19.9079V23.3618H21.9803V21.2895H24.0526V19.2171H26.125V16.4539H33.0329V15.0724H30.9605V13H26.8158V15.0724H24.7434V17.1447H22.6711V19.2171H20.5987V21.2895H15.0724V24.0526Z" fill="#484848" stroke="#484848"/>
</g>
<defs>
<clipPath id="clip0_2236_4287">
<rect width="60" height="60" fill="white"/>
</clipPath>
</defs>
</svg>
