<svg width="60" height="60" viewBox="0 0 60 60" fill="none" xmlns="http://www.w3.org/2000/svg">
<g clip-path="url(#clip0_2274_4549)">
<path fill-rule="evenodd" clip-rule="evenodd" d="M3.82979 0H56.1709V3.82979H60V56.1702H56.1709V60L3.82979 60V56.1702H0V3.82979H3.82979V0Z" fill="#484848"/>
<path fill-rule="evenodd" clip-rule="evenodd" d="M7.17193 3.82983H52.8301V7.17071H56.171V3.82983H56.1715V56.1703L56.171 56.1703V52.8294H52.8301V56.1703L7.17193 56.1703V52.8294H3.83105V7.17071H7.17193V3.82983Z" fill="#FFFDF9"/>
<path d="M35.6875 34.3125V25.375H37.0625V34.3125H35.6875Z" fill="#383838" stroke="#383838"/>
<path d="M40.5625 37.75V21.25H41.9375V37.75H40.5625Z" fill="#383838" stroke="#383838"/>
<path d="M45.4375 40.5V18.5H46.8125V40.5H45.4375Z" fill="#383838" stroke="#383838"/>
<path d="M13 35V24H15.0625V21.25H20.5625V19.1875H22.625V17.125H24.6875V15.0625H26.75V13H30.875V15.0625H32.9375V43.9375H30.875V46H26.0625V43.9375H24V41.875H21.9375V39.8125H19.875V37.75H15.0625V35H13Z" fill="#383838" stroke="#383838"/>
<path d="M15.0625 24H13V25.375H19.875V23.3125H21.9375V21.25H24V19.1875H26.0625V16.4375H32.9375V15.0625H30.875V13H26.75V15.0625H24.6875V17.125H22.625V19.1875H20.5625V21.25H15.0625V24Z" fill="#484848" stroke="#484848"/>
</g>
<defs>
<clipPath id="clip0_2274_4549">
<rect width="60" height="60" fill="white"/>
</clipPath>
</defs>
</svg>
