<svg width="60" height="60" viewBox="0 0 60 60" fill="none" xmlns="http://www.w3.org/2000/svg">
<g clip-path="url(#clip0_2162_4447)">
<path fill-rule="evenodd" clip-rule="evenodd" d="M3.82979 0H56.1709V3.82979H60V56.1702H56.1709V60L3.82979 60V56.1702H0V3.82979H3.82979V0Z" fill="#819BC2"/>
<path fill-rule="evenodd" clip-rule="evenodd" d="M7.17193 3.82983H52.8301V7.17071H56.171V3.82983H56.1715V56.1703L56.171 56.1703V52.8294H52.8301V56.1703L7.17193 56.1703V52.8294H3.83105V7.17071H7.17193V3.82983Z" fill="#F3F6FC"/>
<path d="M23.617 19.1277H24.617V18.1277V17H26.8723V18.1277V19.1277H27.8723H32.1277H33.1277V18.1277V17H35.383V18.1277V19.1277H36.383H37.9362V20.2553V21.2553H38.9362H40.0638V24.9362V25.9362H41.0638H44.3191V27.0638V28.0638H45.3191H46.4468V29.1915V30.1915H47.4468H49V37.1277H47.4468H46.4468V38.1277V39.2553H45.3191H44.3191V40.2553V41.383H43.1915H42.1915V42.383V43.5106H17.8085V42.383V41.383H16.8085H15.6809V40.2553V39.2553H14.6809H13.5532V38.1277V37.1277H12.5532H11V30.1915H12.5532H13.5532V29.1915V28.0638H14.6809H15.6809V27.0638V25.9362H18.9362H19.9362V24.9362V21.2553H21.0638H22.0638V20.2553V19.1277H23.617Z" fill="#819BC2" stroke="#819BC2" stroke-width="2"/>
<path d="M21.5329 24.5106H19V31.1975H22.0395V33.8723H37.2371V31.6433H40.2766V24.5106H37.7437V26.7396H34.7042V28.9686H24.5724V26.7396H21.5329V24.5106Z" fill="#708AB0" stroke="#708AB0"/>
<path d="M21.5329 29.6171H19V35.6961H22.0395V38.1277H37.2371V36.1014H40.2766V29.6171H37.7437V31.6434H34.7042V33.6698H24.5724V31.6434H21.5329V29.6171Z" fill="#647FA7" stroke="#647FA7"/>
</g>
<defs>
<clipPath id="clip0_2162_4447">
<rect width="60" height="60" fill="white"/>
</clipPath>
</defs>
</svg>
