<svg width="24" height="24" viewBox="0 0 24 24" fill="none" xmlns="http://www.w3.org/2000/svg">
<g clip-path="url(#clip0_1981_4218)">
<path d="M8.57143 1.71429C8.57143 0.766071 7.80536 0 6.85714 0C5.90893 0 5.14286 0.766071 5.14286 1.71429V5.14286H1.71429C0.766071 5.14286 0 5.90893 0 6.85714C0 7.80536 0.766071 8.57143 1.71429 8.57143H6.85714C7.80536 8.57143 8.57143 7.80536 8.57143 6.85714V1.71429ZM1.71429 15.4286C0.766071 15.4286 0 16.1946 0 17.1429C0 18.0911 0.766071 18.8571 1.71429 18.8571H5.14286V22.2857C5.14286 23.2339 5.90893 24 6.85714 24C7.80536 24 8.57143 23.2339 8.57143 22.2857V17.1429C8.57143 16.1946 7.80536 15.4286 6.85714 15.4286H1.71429ZM18.8571 1.71429C18.8571 0.766071 18.0911 0 17.1429 0C16.1946 0 15.4286 0.766071 15.4286 1.71429V6.85714C15.4286 7.80536 16.1946 8.57143 17.1429 8.57143H22.2857C23.2339 8.57143 24 7.80536 24 6.85714C24 5.90893 23.2339 5.14286 22.2857 5.14286H18.8571V1.71429ZM17.1429 15.4286C16.1946 15.4286 15.4286 16.1946 15.4286 17.1429V22.2857C15.4286 23.2339 16.1946 24 17.1429 24C18.0911 24 18.8571 23.2339 18.8571 22.2857V18.8571H22.2857C23.2339 18.8571 24 18.0911 24 17.1429C24 16.1946 23.2339 15.4286 22.2857 15.4286H17.1429Z" fill="#F2F2F2"/>
</g>
<defs>
<clipPath id="clip0_1981_4218">
<rect width="24" height="24" fill="white"/>
</clipPath>
</defs>
</svg>
