<svg width="60" height="60" viewBox="0 0 60 60" fill="none" xmlns="http://www.w3.org/2000/svg">
<g clip-path="url(#clip0_2236_4315)">
<path fill-rule="evenodd" clip-rule="evenodd" d="M3.82979 0H56.1709V3.82979H60V56.1702H56.1709V60L3.82979 60V56.1702H0V3.82979H3.82979V0Z" fill="#484848"/>
<path fill-rule="evenodd" clip-rule="evenodd" d="M7.17193 3.82983H52.8301V7.17071H56.171V3.82983H56.1715V56.1703L56.171 56.1703V52.8294H52.8301V56.1703L7.17193 56.1703V52.8294H3.83105V7.17071H7.17193V3.82983Z" fill="#FFFDF9"/>
<path d="M10.5 41V16.5H12V15H15.5V16.5H17V18H43.5V16.5H45V15H48V16.5H49.5V41H48V42.5H46.5V44H13.5V42.5H12V41H10.5Z" fill="#383838" stroke="#383838"/>
<path d="M19 42V18H40V42H19Z" fill="#505050" stroke="#505050"/>
<path d="M32 31.5V33H30V36H32V37.5H36.5V34.5H35V31.5H32Z" fill="#222222" stroke="#222222"/>
<path d="M36 26V23H38.5V26H36Z" fill="#222222" stroke="#222222"/>
<path d="M12 36V15H14.8V16.5H16V38H14.4V36H12Z" fill="#505050" stroke="#505050"/>
<path d="M48 36V15H44.6667V16.5H43V38H44.6667V36H48Z" fill="#505050" stroke="#505050"/>
<path d="M20.5 29V26.5H22V24.5H23.5V23H28.5V24.5H30V26H31.5V28H27V31H22V29H20.5Z" fill="#222222" stroke="#222222"/>
<path d="M16 38V39.5H14.8125V38H11.5V41H13V42.5H46V41H47.5V38H44.5V39.5H43V38H44.5V36.5H47.5V38H49V41H47.5V42.5H46V44H13V42.5H11.5V41H10V38H11.5V36.5H14.8125V38H16Z" fill="#222222"/>
<path d="M14.8125 38V39.5H16V38H14.8125ZM14.8125 38V36.5H11.5V38M14.8125 38H11.5M11.5 38V41M11.5 38H10V41H11.5M11.5 41V42.5H13M11.5 41H13V42.5M13 42.5V44H46V42.5M13 42.5H46M46 42.5H47.5V41M46 42.5V41H47.5M47.5 41H49V38H47.5M47.5 41V38M47.5 38V36.5H44.5V38M47.5 38H44.5M44.5 38H43V39.5H44.5V38Z" stroke="#222222"/>
</g>
<defs>
<clipPath id="clip0_2236_4315">
<rect width="60" height="60" fill="white"/>
</clipPath>
</defs>
</svg>
