<svg width="60" height="60" viewBox="0 0 60 60" fill="none" xmlns="http://www.w3.org/2000/svg">
<g clip-path="url(#clip0_2236_4228)">
<path fill-rule="evenodd" clip-rule="evenodd" d="M3.82979 0H56.1709V3.82979H60V56.1702H56.1709V60L3.82979 60V56.1702H0V3.82979H3.82979V0Z" fill="#484848"/>
<path fill-rule="evenodd" clip-rule="evenodd" d="M7.17193 3.82983H52.8301V7.17071H56.171V3.82983H56.1715V56.1703L56.171 56.1703V52.8294H52.8301V56.1703L7.17193 56.1703V52.8294H3.83105V7.17071H7.17193V3.82983Z" fill="#FFFDF9"/>
<path d="M22.1805 15H42.1477V16.4262H43.5739V17.8525H45.0002V22.6066H44.0494V24.0328H40.2461V42.5738H38.8198V43.5246H37.869V44.9508H18.3772V43.5246H17.4264V42.5738H16.4756V38.7705H17.4264V37.3443H20.2789L19.8035 17.8525H21.2297V16.4262H22.1805V15Z" fill="#505050" stroke="#505050" stroke-width="2"/>
<path d="M32.6393 37.3442H17.4262V38.2951H16V42.5737H16.9508V43.5246H18.377V44.9508H35.0164V42.5737H34.0656V38.7705H32.6393V37.3442Z" fill="#383838" stroke="#505050"/>
<path d="M43 16.4263L42.1476 16.4263V17.8525H40.7213V19.7541H39.7705V24.0328H44.0492V22.6066H45V17.8525L43 17.8525V16.4263Z" fill="#383838" stroke="#505050"/>
<path d="M23.6064 23H36.4425M23.6064 26.8934H33.1146M23.6064 30.8934H35.4917" stroke="#222222" stroke-width="2"/>
</g>
<defs>
<clipPath id="clip0_2236_4228">
<rect width="60" height="60" fill="white"/>
</clipPath>
</defs>
</svg>
